<?xml version="1.0" encoding="UTF-8"?>
<!DOCTYPE svg PUBLIC "-//W3C//DTD SVG 1.1//EN" "http://www.w3.org/Graphics/SVG/1.1/DTD/svg11.dtd">
<svg xmlns="http://www.w3.org/2000/svg" version="1.1" width="512px" height="512px" style="shape-rendering:geometricPrecision; text-rendering:geometricPrecision; image-rendering:optimizeQuality; fill-rule:evenodd; clip-rule:evenodd" xmlns:xlink="http://www.w3.org/1999/xlink">
<g><path style="opacity:0.996" fill="#fea726" d="M 246.5,-0.5 C 252.5,-0.5 258.5,-0.5 264.5,-0.5C 281.432,4.10273 291.432,15.1027 294.5,32.5C 307.241,32.0589 319.908,32.5589 332.5,34C 339.764,39.2749 342.431,46.4416 340.5,55.5C 340.5,59.5 340.5,63.5 340.5,67.5C 340.666,74.175 340.5,80.8417 340,87.5C 338.167,93.3333 334.333,97.1667 328.5,99C 279.833,99.6667 231.167,99.6667 182.5,99C 176.667,97.1667 172.833,93.3333 171,87.5C 170.5,80.8417 170.334,74.175 170.5,67.5C 170.5,63.5 170.5,59.5 170.5,55.5C 168.569,46.4416 171.236,39.2749 178.5,34C 191.092,32.5589 203.759,32.0589 216.5,32.5C 219.568,15.1027 229.568,4.10273 246.5,-0.5 Z"/></g>
<g><path style="opacity:1" fill="#fffdfb" d="M 250.5,21.5 C 266.472,20.9726 274.305,28.6393 274,44.5C 268.275,57.741 258.775,61.5743 245.5,56C 232.263,42.2868 233.93,30.7868 250.5,21.5 Z"/></g>
<g><path style="opacity:0.962" fill="#8f6130" d="M 170.5,55.5 C 170.5,59.5 170.5,63.5 170.5,67.5C 151.497,67.3334 132.497,67.5001 113.5,68C 105.159,70.3407 99.3262,75.5074 96,83.5C 95.3333,216.167 95.3333,348.833 96,481.5C 98.0567,490.557 103.557,496.391 112.5,499C 207.833,499.667 303.167,499.667 398.5,499C 407,496.5 412.5,491 415,482.5C 415.667,349.833 415.667,217.167 415,84.5C 411.993,75.4949 405.827,69.9949 396.5,68C 377.836,67.5001 359.17,67.3334 340.5,67.5C 340.5,63.5 340.5,59.5 340.5,55.5C 360.169,55.3334 379.836,55.5 399.5,56C 416.356,59.8556 425.856,70.3556 428,87.5C 428.667,218.5 428.667,349.5 428,480.5C 425.392,496.267 416.559,506.6 401.5,511.5C 304.167,511.5 206.833,511.5 109.5,511.5C 94.4413,506.6 85.6079,496.267 83,480.5C 82.3333,349.5 82.3333,218.5 83,87.5C 85.144,70.3556 94.644,59.8556 111.5,56C 131.164,55.5 150.831,55.3334 170.5,55.5 Z"/></g>
<g><path style="opacity:1" fill="#d5e2fe" d="M 170.5,67.5 C 170.334,74.175 170.5,80.8417 171,87.5C 172.833,93.3333 176.667,97.1667 182.5,99C 231.167,99.6667 279.833,99.6667 328.5,99C 334.333,97.1667 338.167,93.3333 340,87.5C 340.5,80.8417 340.666,74.175 340.5,67.5C 359.17,67.3334 377.836,67.5001 396.5,68C 405.827,69.9949 411.993,75.4949 415,84.5C 415.667,217.167 415.667,349.833 415,482.5C 412.5,491 407,496.5 398.5,499C 303.167,499.667 207.833,499.667 112.5,499C 103.557,496.391 98.0567,490.557 96,481.5C 95.3333,348.833 95.3333,216.167 96,83.5C 99.3262,75.5074 105.159,70.3407 113.5,68C 132.497,67.5001 151.497,67.3334 170.5,67.5 Z"/></g>
<g><path style="opacity:1" fill="#9dbcdd" d="M 278.5,128.5 C 288.172,128.334 297.839,128.5 307.5,129C 316.745,131.244 323.245,136.744 327,145.5C 328.595,159.444 328.928,173.444 328,187.5C 322.168,203.303 310.835,209.969 294,207.5C 288.833,207.333 283.667,207.167 278.5,207C 277.333,206.5 276.5,205.667 276,204.5C 275.333,180.167 275.333,155.833 276,131.5C 277.045,130.627 277.878,129.627 278.5,128.5 Z"/></g>
<g><path style="opacity:1" fill="#9ebcdd" d="M 361.5,128.5 C 378.836,126.735 390.003,134.069 395,150.5C 395.9,163.548 395.567,176.548 394,189.5C 385.526,206.915 372.36,211.749 354.5,204C 347.737,199.657 343.571,193.49 342,185.5C 341.058,172.43 341.391,159.43 343,146.5C 346.441,137.557 352.608,131.557 361.5,128.5 Z"/></g>
<g><path style="opacity:1" fill="#9ebcdd" d="M 200.5,129.5 C 217.993,126.985 229.493,133.985 235,150.5C 235.667,162.167 235.667,173.833 235,185.5C 230.769,202.382 219.935,209.882 202.5,208C 191.263,205.021 184.429,197.854 182,186.5C 181.333,174.5 181.333,162.5 182,150.5C 184.862,140.478 191.029,133.478 200.5,129.5 Z"/></g>
<g><path style="opacity:1" fill="#9ebcdd" d="M 118.5,135.5 C 134.17,135.333 149.837,135.5 165.5,136C 169,139.004 169.333,142.337 166.5,146C 160.621,147.41 154.621,147.91 148.5,147.5C 148.667,164.503 148.5,181.503 148,198.5C 144.74,203.285 141.073,203.619 137,199.5C 136.5,182.17 136.333,164.837 136.5,147.5C 130.824,147.666 125.157,147.499 119.5,147C 114.515,143.564 114.182,139.731 118.5,135.5 Z"/></g>
<g><path style="opacity:1" fill="#d5e2fe" d="M 287.5,140.5 C 309.901,136.24 319.567,145.24 316.5,167.5C 319.994,190.338 310.327,199.672 287.5,195.5C 287.5,177.167 287.5,158.833 287.5,140.5 Z"/></g>
<g><path style="opacity:1" fill="#d4e2fe" d="M 363.5,140.5 C 373.078,138.944 379.578,142.611 383,151.5C 383.667,162.5 383.667,173.5 383,184.5C 379.296,193.859 372.463,197.359 362.5,195C 357.835,192.497 355.002,188.663 354,183.5C 353.333,172.833 353.333,162.167 354,151.5C 355.599,146.406 358.766,142.739 363.5,140.5 Z"/></g>
<g><path style="opacity:1" fill="#d4e2fe" d="M 202.5,141.5 C 212.5,139.58 219.334,143.246 223,152.5C 223.667,163.5 223.667,174.5 223,185.5C 218.889,195.332 211.722,198.499 201.5,195C 197.839,192.337 195.339,188.837 194,184.5C 193.333,173.833 193.333,163.167 194,152.5C 195.553,147.788 198.386,144.121 202.5,141.5 Z"/></g>
<g><path style="opacity:1" fill="#9ebcdd" d="M 175.5,228.5 C 183.242,228.063 185.742,231.396 183,238.5C 172.137,249.697 160.971,260.53 149.5,271C 147.365,271.635 145.365,271.301 143.5,270C 138,263.833 132.5,257.667 127,251.5C 126.379,245.122 129.212,242.622 135.5,244C 139.682,248.015 143.682,252.182 147.5,256.5C 157.188,247.479 166.521,238.146 175.5,228.5 Z"/></g>
<g><path style="opacity:1" fill="#9ebdde" d="M 214.5,243.5 C 264.501,243.333 314.501,243.5 364.5,244C 369.31,247.355 369.644,251.021 365.5,255C 314.833,255.667 264.167,255.667 213.5,255C 209.434,250.819 209.767,246.986 214.5,243.5 Z"/></g>
<g><path style="opacity:1" fill="#9ebcdd" d="M 175.5,290.5 C 183.242,290.063 185.742,293.396 183,300.5C 172.471,311.363 161.637,321.863 150.5,332C 148.101,332.711 145.768,332.544 143.5,331.5C 137.816,325.65 132.316,319.65 127,313.5C 126.332,307.171 129.166,304.671 135.5,306C 139.613,310.113 143.779,314.279 148,318.5C 157.369,309.298 166.536,299.965 175.5,290.5 Z"/></g>
<g><path style="opacity:1" fill="#9dbcdd" d="M 213.5,305.5 C 263.834,305.333 314.168,305.5 364.5,306C 369.833,309.667 369.833,313.333 364.5,317C 314.167,317.667 263.833,317.667 213.5,317C 209.555,313.169 209.555,309.336 213.5,305.5 Z"/></g>
<g><path style="opacity:1" fill="#9ebddd" d="M 176.5,351.5 C 182.765,351.363 185.265,354.363 184,360.5C 172.833,371.667 161.667,382.833 150.5,394C 148.5,394.667 146.5,394.667 144.5,394C 137.926,388.096 132.092,381.596 127,374.5C 126.572,370.407 128.406,367.74 132.5,366.5C 133.938,366.719 135.271,367.219 136.5,368C 140.291,371.78 143.958,375.613 147.5,379.5C 157.214,370.118 166.881,360.784 176.5,351.5 Z"/></g>
<g><path style="opacity:1" fill="#9ebcdd" d="M 213.5,367.5 C 264.168,367.333 314.834,367.5 365.5,368C 369.619,372.073 369.285,375.74 364.5,379C 314.167,379.667 263.833,379.667 213.5,379C 209.555,375.169 209.555,371.336 213.5,367.5 Z"/></g>
<g><path style="opacity:1" fill="#9ebcdd" d="M 175.5,413.5 C 183.301,413.115 185.801,416.448 183,423.5C 172.5,434 162,444.5 151.5,455C 149.305,456.373 146.971,456.706 144.5,456C 139.366,449.865 133.866,444.031 128,438.5C 125.5,430.333 128.333,427.5 136.5,430C 140.386,434.238 144.386,437.905 148.5,441C 157.702,431.965 166.702,422.798 175.5,413.5 Z"/></g>
<g><path style="opacity:1" fill="#9fbdde" d="M 213.5,429.5 C 264.168,429.333 314.834,429.5 365.5,430C 369.867,434.502 369.201,438.168 363.5,441C 313.833,441.667 264.167,441.667 214.5,441C 209.636,437.526 209.303,433.693 213.5,429.5 Z"/></g>
</svg>
